<?xml version="1.0" standalone="no"?>
<!DOCTYPE svg PUBLIC "-//W3C//DTD SVG 20010904//EN"
 "http://www.w3.org/TR/2001/REC-SVG-20010904/DTD/svg10.dtd">
<svg version="1.0" xmlns="http://www.w3.org/2000/svg"
 width="200.000000pt" height="200.000000pt" viewBox="0 0 200.000000 200.000000"
 preserveAspectRatio="xMidYMid meet">
<metadata>
Created by potrace 1.14, written by Peter Selinger 2001-2017
</metadata>
<g transform="translate(0.000000,200.000000) scale(0.100000,-0.100000)"
fill="#000000" stroke="none">
<path d="M662 1336 l-72 -124 71 -121 71 -121 77 0 77 0 82 235 c45 130 82
240 82 245 0 6 -62 10 -158 10 l-157 0 -73 -124z m188 48 c0 -3 -22 -43 -49
-88 l-49 -83 49 -84 c27 -46 49 -87 49 -91 0 -5 -17 -8 -38 -8 -37 0 -39 1
-90 91 l-52 91 51 89 c51 88 52 89 90 89 22 0 39 -3 39 -6z"/>
<path d="M1022 1123 c-45 -131 -82 -241 -82 -245 0 -5 71 -8 159 -8 l159 0 71
124 71 124 -71 121 -71 121 -77 0 -77 0 -82 -237z m200 160 c8 -10 34 -51 57
-92 l42 -74 -50 -86 c-48 -84 -51 -86 -90 -89 -23 -2 -41 -1 -41 2 0 2 21 40
47 83 25 43 46 83 46 88 0 6 -21 47 -46 91 -26 45 -47 84 -47 87 0 15 68 6 82
-10z"/>
<path d="M516 695 c-50 -46 -27 -134 39 -151 30 -7 88 14 82 30 -3 6 -11 9
-18 7 -64 -18 -99 0 -99 49 0 42 31 64 80 56 43 -7 54 6 21 24 -33 17 -76 11
-105 -15z"/>
<path d="M699 691 c-36 -37 -38 -79 -5 -118 53 -61 156 -21 156 62 0 25 -8 40
-31 59 -41 35 -83 34 -120 -3z m103 -18 c38 -34 10 -103 -42 -103 -30 0 -60
30 -60 60 0 50 64 78 102 43z"/>
<path d="M890 631 l0 -89 48 4 c63 6 91 21 101 58 17 67 -28 116 -109 116
l-40 0 0 -89z m101 49 c28 -15 26 -74 -3 -94 -12 -9 -33 -16 -45 -16 -21 0
-23 4 -23 60 0 58 1 60 26 60 14 0 34 -5 45 -10z"/>
<path d="M1090 635 c0 -50 4 -85 10 -85 9 0 11 16 12 100 1 50 -2 70 -12 70
-6 0 -10 -35 -10 -85z"/>
<path d="M1162 635 c3 -97 20 -114 28 -28 l5 58 44 -57 c61 -81 71 -77 71 28
0 64 -3 85 -12 82 -8 -3 -15 -28 -18 -58 l-5 -54 -43 57 c-62 82 -73 77 -70
-28z"/>
<path d="M1379 691 c-35 -35 -38 -77 -9 -114 25 -31 62 -41 106 -27 31 11 34
15 34 51 0 38 -1 39 -35 39 -19 0 -35 -4 -35 -10 0 -5 9 -10 21 -10 15 0 20
-5 17 -22 -2 -19 -9 -23 -38 -23 -27 0 -37 6 -50 28 -13 24 -13 30 1 55 13 23
22 27 60 28 63 1 65 2 43 19 -33 25 -82 19 -115 -14z"/>
</g>
</svg>
